<?xml version="1.0" encoding="utf-8"?>
<!-- Generator: Adobe Illustrator 23.0.2, SVG Export Plug-In . SVG Version: 6.00 Build 0)  -->
<svg version="1.1" id="Layer_1" xmlns="http://www.w3.org/2000/svg" xmlns:xlink="http://www.w3.org/1999/xlink" x="0px" y="0px"
	 viewBox="0 0 200.5 200.5" style="enable-background:new 0 0 200.5 200.5;" xml:space="preserve">
<style type="text/css">
	.st0{fill:#0EC1BC;}
	.st1{fill:#27A09A;}
	.st2{fill:#5B015B;}
	.st3{fill:#F0D0B4;}
	.st4{fill:#CF9E76;}
	.st5{fill:#5E3A1C;}
	.st6{fill:#754C24;}
	.st7{fill:#FFFFFF;}
	.st8{fill:#BBD39C;}
	.st9{fill:#ECC19C;}
	.st10{fill:#F5E0CD;}
	.st11{fill:#662D91;}
	.st12{fill:#A97AE5;}
	.st13{fill:#2D0000;}
	.st14{fill:#8B2532;}
</style>
<path class="st0" d="M191.6,120.6l-71.5,69.5c-11.2,11.2-29.5,11.2-40.7,0L7.9,120.6c-11.2-11.2-11.2-29.5,0-40.7L79.4,8.4c11.2-11.2,29.5-11.2,40.7,0l71.5,71.5C202.8,91.1,202.8,109.4,191.6,120.6z"/>
<ellipse transform="matrix(0.9958 -9.115443e-02 9.115443e-02 0.9958 -10.86 9.6047)" class="st1" cx="99.7" cy="123.7" rx="68.5" ry="23.1"/>
<path class="st2" d="M79.4,190.1c11.2,11.2,29.5,11.2,40.7,0L150,161H49.5L79.4,190.1z"/>
<rect x="91.5" y="137.6" class="st3" width="15.9" height="27"/>
<polygon class="st3" points="99.2,175.6 85.1,161 113.5,161"/>
<polygon class="st3" points="146.1,108.9 138.9,110.8 135.7,110.3 133,108.8 131,106.4 129.9,103.4 129.6,100.2 130.2,96.6 131.8,93.3 134.2,90.5 137.4,88.5 144.4,88.5 149.9,95.2"/>
<polygon class="st4" points="144.8,102 143.6,104.2 145.5,102.6 146.8,98.9 145.3,95.1 142,93.7 144,95.7 145.6,98.8"/>
<polygon class="st3" points="70.1,100.2 69.7,103.5 68.3,106.5 66,108.8 63.1,110.3 54.9,109.2 49.5,96.1 55.3,88.5 58.7,87.8 62.3,88.5 65.5,90.5 67.9,93.3 69.5,96.6"/>
<polygon class="st4" points="55.4,102.5 56.6,104.7 54.3,102.6 53.3,99.4 54.9,95.6 58.1,94.2 56.2,96.2 54.6,99.3"/>
<polygon class="st3" points="55.8,64.3 55.9,63 55.9,61.7 55.9,60.4 56,59 56.1,57.7 56.1,57.6 56.1,57.4 56.1,57.2 56.1,57.1 56.1,56.9 56.4,54.9 57.2,53.1 58.5,51.5 60,50.2 61.8,49.2 69.5,48.6 77.2,47.9 84.9,47.2 92.6,46.6 100.4,46.1 108.7,46.3 117.1,46.6 125.5,47 133.9,47.6 141.9,49.5 142.8,52.7 143.4,55.8 143.7,59.1 143.9,62.3 144,65.5 143.2,78.7 141.2,91.8 138.5,104.8 131.7,137.9 125.7,148.4 113.6,154.8 99.9,155.7 83.7,154.4 74.3,147.6 68.7,137.7 61,104.1 58.5,91 56.6,77.7"/>
<polygon class="st5" points="133.1,71.1 136.9,51.3 139.6,46.6 145.2,49.5 145,87.1 144.3,88.5 141.8,88.6"/>
<polygon class="st5" points="59.7,88.2 56.3,87.6 56,47.9 63.4,45 68.4,71.1"/>
<polygon class="st5" points="136.9,33.4 129.9,43.2 129.9,43.1 129.9,43 129.9,43 129.9,42.9 129.9,42.9 105.3,18 102.7,38.3 79.9,30.6 91.2,42.1 76.2,37.4 82.7,44.3 63.4,45 65.1,59.2 112.1,70.2 137.1,58.4 139.9,46.8"/>
<polygon class="st6" points="63.7,47.9 63.7,47.9 63.7,47.9 63.7,47.9 63.7,47.9 63.7,47.9 85.9,46.3 82.2,40.6 94.1,44.1 87.2,35.2 104.8,42.5 107.7,22.6 130.7,45.7 136.8,38.9 137.2,45.2 134.6,55.6 112.2,67.5 68.3,57.2"/>
<polygon class="st5" points="99.6,48.4 93,39.2 105.5,45.4 109.4,28 125,46.6 132.8,48.8 132.8,48.8 132.8,48.8 130.8,53.5 112,63.8 112,63.8 112,63.8 111.9,63.8 111.9,63.8 69.5,52.2 86.8,50.4 88.4,45.4"/>
<path class="st6" d="M137.1,110.3l-8.3,25l-5.5,3.4l-5.3-3.6l-4.6-14.4l-26.8-0.1l-4.5,14.5l-5.4,3.6l-5.5-3.4l-8.9-25l2,13.3l4.4,14.1l5.6,9.9l9.4,6.8l16.2,2.4l13.7-1.9l12.1-6.4l6-10.5l3.4-14.3L137.1,110.3z M87.1,130.3l2.8-4.3l20.3,0l3.2,4.6l-0.1,8.2l-3.4,3.2l-9.9-4.1l-9.9,4.1l-2.9-3.2L87.1,130.3z"/>
<polygon class="st5" points="100.4,154.7 85.1,152.6 76.9,147.3 70.2,136.8 77.3,141.3 83.4,137.4 84.5,132.1 85,138.4 88.3,143.7 93.3,143.8 100.1,140 107,143.8 111.5,143.9 116.2,140.3 115,132.4 117.8,138.9 123.2,141.5 130.4,136.3 124.9,146.6 113.1,153.1"/>
<polygon class="st7" points="114.1,82.5 121.9,82.6 129.5,83.3 134.3,89.8 134.5,97.9 129.6,104.3 114.2,103.6 109.4,97.1 109.2,89"/>
<polygon class="st8" points="112.9,96.5 116.2,101 121.5,102.8 126.8,101 130.1,96.5 130.1,90.9 126.8,86.3 121.5,84.6 116.2,86.3 112.9,90.9"/>
<polygon points="115,95.8 117.5,99.2 121.5,100.5 125.5,99.2 128,95.8 128,91.6 125.5,88.2 121.5,86.9 117.5,88.2 115,91.6"/>
<polygon class="st7" points="125.3,92.7 124.6,95.7 122.7,97.1 120.3,97.1 118.4,95.7 117.7,93.5 117.7,93.4 117.7,93.3 116.8,93.5 113.1,94.7 115.1,98.9 119,101.6 123.9,101.5 128,98.4 129.8,93.6"/>
<polygon class="st7" points="118.3,86.6 119.6,87.1 120.2,88.3 119.9,90 118.5,91.5 116.7,92 115.7,91.5 115.1,90.3 115.4,88.6 116.8,87.1"/>
<polygon class="st7" points="70.1,82.5 78,82 85.6,83.3 90.4,89.8 90.5,97.9 85.7,104.3 70.2,103.6 65.4,97.1 65.3,89"/>
<polygon class="st8" points="68.9,96.5 72.2,101 77.5,102.8 82.9,101 86.2,96.5 86.2,90.9 82.9,86.3 77.5,84.6 72.2,86.3 68.9,90.9"/>
<polygon points="71.1,95.8 73.6,99.2 77.5,100.5 81.5,99.2 84,95.8 84,91.6 81.5,88.2 77.5,86.9 73.6,88.2 71.1,91.6"/>
<polygon class="st7" points="81.3,92.7 80.7,95.7 78.7,97.1 76.4,97.1 74.4,95.7 73.7,93.5 73.7,93.4 73.7,93.3 72.8,93.5 69.2,94.7 71.2,98.9 75.1,101.6 80,101.5 84.1,98.4 85.8,93.6"/>
<polygon class="st7" points="74.4,86.6 75.7,87.1 76.3,88.3 75.9,90 74.6,91.5 72.8,92 71.7,91.5 71.1,90.3 71.5,88.6 72.8,87.1"/>
<polygon class="st3" points="92.5,106.5 90.8,103.4 87.6,101.9 84,101.2 80.5,100.8 76.8,100.6 76.3,100.6 75.8,100.6 75.3,100.6 
	74.7,100.5 74.2,100.5 71.2,100.6 68.3,100.9 65.4,101.6 62.9,103.1 61.9,105.8 62,107.3 62.5,108.7 63.1,110 63.8,111.3 64.6,112.5 66.7,112 68.8,111.6 70.9,111.3 73.1,111.2 75.2,111.2 78,111.2 80.9,111.5 83.7,111.9 86.4,112.5 89.1,113.4 90,112.1 90.9,110.8 91.7,109.5 92.2,108"/>
<polygon class="st3" points="135.9,103.7 121.9,101.1 108.3,103.3 109.6,113 121.9,111.7 134.1,113.9"/>
<polygon class="st9" points="99.4,93.8 102.6,106.7 100.2,114.1 107.3,106.9"/>
<polygon class="st4" points="97.9,109.6 97.5,110.2 96.2,111.8 95.8,108.9 96.9,108.1 97.5,108.3"/>
<polygon class="st10" points="102.6,106.7 97.6,106.2 99.4,93.8"/>
<polygon class="st5" points="81.9,72.9 67.8,77.2 64.9,80.8 68.2,79.2 82.5,76.7 91.9,77.8 91.4,73.4"/>
<polygon class="st5" points="118.4,72.9 132.4,77.2 135.4,80.8 132,79.2 117.7,76.7 108.3,77.8 108.8,73.4"/>
<path class="st11" d="M143.6,83.9l-8.2-1.6l-17.2-0.8l-18.2,3.5l-18.2-3.5l-17.2,0.8l-8.2,1.6l-0.6,1.5l0.1,4.6l2.1,2.7l4.7,13.8
	l9.4,4.5l9.5-0.2l6.7-2.6l9.5-14.6l2.4-0.4l2.4,0.4l10,15.1l8.3,2l7.4,0.2l9.9-4.5l4.1-13.8l2.1-2.7l0.1-4.6L143.6,83.9zM87,105.5l-6.3,2.7l-8.7,0.1l-8-4l-3.4-13l1-5.1l7.4-1.8l7.3-0.6l8.3,0.7l8.5,2.4l1.8,4.3L87,105.5z M136.3,104.4l-8.5,4l-5,0.4l-8.9-2.2l-9.1-15.4l1.8-4.3l8.5-2.4l8.3-0.7l7.3,0.6l7.4,1.8l1,5.1L136.3,104.4z"/>
<polygon class="st12" points="56.2,85.5 64.5,83.8 72.8,83 81.7,83 99.9,86.5 118.1,83 127,83 135.3,83.8 143.6,85.5 144.2,86.8 144.2,85.3 143.6,83.9 135.3,82.3 118.1,81.4 99.9,84.9 81.7,81.4 64.5,82.3 56.2,83.9 55.6,85.3 55.6,86.8"/>
<polygon class="st12" points="63,105.4 72.1,110 80.8,109.9 87.6,106.6 95.1,93.4 95.1,91.1 87,105.5 80.8,108.3 72.1,108.4 64.1,104.4 60.7,91.7 60.1,93"/>
<polygon class="st12" points="113.3,107.7 120.6,109.9 127.8,110 136.8,105.4 139.7,93 139,92.1 136.3,104.4 127.8,108.4 122.7,108.8 113.8,106.6 104.6,91.1 104.6,93.4"/>
<polygon class="st13" points="89.6,127.6 110.1,127.6 109.9,129.6 107.9,133.5 106.9,135 99.9,136.3 93,135 91.9,133.6 89.9,129.6"/>
<polygon class="st14" points="105.5,134.2 104.1,132.6 102.2,132.2 99.3,132.5 96.5,132.2 93.5,133.5 93,135 99.9,136.3 105.3,135.2"/>
<polygon class="st7" points="91.9,133.6 93,135 99.9,136.3 106.9,135 107.9,133.5"/>
<polygon class="st7" points="89.6,127.6 89.9,129.6 109.9,129.6 110.1,127.6"/>

</svg>
